<?xml version="1.0" encoding="utf-8"?>
<!-- Generator: Adobe Illustrator 22.1.0, SVG Export Plug-In . SVG Version: 6.00 Build 0)  -->
<svg version="1.1" id="Layer_1" xmlns="http://www.w3.org/2000/svg" xmlns:xlink="http://www.w3.org/1999/xlink" x="0px" y="0px"
	 viewBox="0 0 141.7 141.7" style="enable-background:new 0 0 141.7 141.7;" xml:space="preserve">
<style type="text/css">
	.st0{fill:#FFFFFF;}
</style>
<g>
	<path class="st0" d="M45.7,125.2c0,0-0.4-7.9,2.6-14.9c-0.8,1.1-1.7,2.4-2.5,3.7c-4.4,7.4-4,17.7-4,17.7s9.3-4.4,13.7-11.9
		c0.8-1.3,1.5-2.6,2.1-3.9C52.8,121.8,45.7,125.2,45.7,125.2z"/>
	<path class="st0" d="M90.3,93c1.3-2.2,2.8-4.7,4.5-7.5C125.4,34.3,114.4,10,114.4,10s-26.6,1.9-57.1,53.1c-1.5,2.5-2.9,4.8-4.1,6.9
		l-17.9,4.6l-9.9,21.5L44.7,95c-0.7,1.6-0.2,3.5,1.4,4.5l6.3,3.8l-1,1.7l4.3,2.6C58,102.1,61,95,63,92c1.7-2.6,5.2-5.8,8.7-8.7
		l-14.9,24.9l-3,5c0,0,1.6-1.9,3.8-4.5l3.3,2l1-1.7l6.3,3.8c1.4,0.8,3.2,0.6,4.3-0.6l7.8,16.8l14.2-19L90.3,93z M91.4,48
		c-3.6-2.2-4.8-6.9-2.6-10.5c2.2-3.6,6.9-4.8,10.5-2.6s4.8,6.9,2.6,10.5S95,50.1,91.4,48z"/>
</g>
</svg>
